<?xml version="1.0" standalone="no"?>
<!DOCTYPE svg PUBLIC "-//W3C//DTD SVG 20010904//EN"
 "http://www.w3.org/TR/2001/REC-SVG-20010904/DTD/svg10.dtd">
<svg version="1.0" xmlns="http://www.w3.org/2000/svg"
 width="159.000000pt" height="159.000000pt" viewBox="0 0 159.000000 159.000000"
 preserveAspectRatio="xMidYMid meet">
<metadata>
Created by potrace 1.11, written by Peter Selinger 2001-2013
</metadata>
<g transform="translate(0.000000,159.000000) scale(0.100000,-0.100000)"
fill="#000000" stroke="none">
<path d="M790 1267 c-217 -64 -335 -250 -317 -496 8 -101 29 -166 79 -241 73
-110 179 -168 323 -177 140 -9 245 26 331 112 71 71 95 137 102 281 4 99 3
112 -13 118 -23 9 -345 9 -368 0 -15 -6 -17 -17 -15 -88 l3 -81 35 -5 c33 -5
34 -6 13 -18 -28 -15 -84 -15 -118 0 -83 38 -85 250 -4 343 57 65 146 68 168
5 8 -24 15 -31 27 -26 11 4 22 -1 31 -14 13 -18 25 -20 118 -20 57 0 107 4
110 10 10 16 -12 81 -47 140 -63 104 -170 160 -323 166 -56 3 -107 -1 -135 -9z"/>
</g>
</svg>
